<?xml version="1.0" standalone="no"?>
<!DOCTYPE svg PUBLIC "-//W3C//DTD SVG 20010904//EN"
 "http://www.w3.org/TR/2001/REC-SVG-20010904/DTD/svg10.dtd">
<svg version="1.0" xmlns="http://www.w3.org/2000/svg"
 width="840.000000pt" height="345.000000pt" viewBox="0 0 840.000000 345.000000"
 preserveAspectRatio="xMidYMid meet">

<g transform="translate(0.000000,345.000000) scale(0.100000,-0.100000)"
fill="#000000" stroke="none">
<path d="M7377 2436 c-127 -47 -231 -178 -422 -531 -295 -544 -383 -669 -484
-682 -101 -14 -200 102 -459 537 -166 279 -237 380 -332 476 -88 89 -152 125
-235 132 -105 8 -190 -31 -332 -155 -87 -76 -196 -205 -442 -523 -72 -93 -199
-231 -266 -289 -194 -168 -302 -96 -600 404 -123 205 -193 304 -276 387 -90
92 -157 128 -236 128 -154 0 -295 -118 -551 -460 -331 -442 -421 -538 -534
-570 -99 -29 -212 88 -424 437 -276 455 -375 558 -534 558 -170 -1 -331 -150
-674 -624 -204 -280 -251 -333 -339 -372 -26 -12 -27 -16 -27 -81 0 -48 4 -68
13 -68 21 0 130 56 168 86 59 48 133 138 286 349 245 337 377 485 486 550 135
79 215 8 477 -421 168 -276 237 -371 322 -448 86 -79 136 -101 223 -101 155 1
281 111 573 505 236 317 364 459 453 504 63 31 87 32 137 7 82 -42 217 -220
376 -496 128 -222 265 -389 367 -448 193 -113 381 -5 702 402 249 315 298 374
381 456 138 136 225 174 312 136 98 -44 200 -177 439 -576 164 -275 233 -372
318 -452 155 -145 279 -144 426 4 100 101 165 202 351 548 56 105 125 228 152
275 98 167 198 282 253 292 133 26 370 -341 706 -1091 l64 -144 3 156 3 157
-56 122 c-184 403 -369 707 -512 839 -96 88 -176 115 -256 85z"/>
</g>
</svg>
